#!OML:ASF Y:\EmotionMaleHayes\Project 1\Capture day 1\Session 1\Male1.ASF
:FULLY-SPECIFIED
:DEGREES
200
root -28.8885 17.2167 -0.466449 25.8082 85.687 23.9696
lowerback 5.10394 1.86021 -4.15555
upperback 0.949311 2.26033 -0.67328
thorax -2.01514 1.16081 1.48032
lowerneck -23.4264 2.6678 3.28008
upperneck 25.6082 3.00698 -0.784945
head 12.4494 1.62892 -0.308594
rclavicle 5.73991e-015 -5.56597e-015
rhumerus -34.655 5.25929 -88.8043
rradius 32.7595
rwrist 0.643407
rhand -11.7943 -30.8141
rfingers 7.12502
rthumb 14.2553 -60.3048
lclavicle 5.73991e-015 -5.56597e-015
lhumerus -29.2273 -11.7513 91.7366
lradius 25.1345
lwrist -17.6373
lhand -20.6001 -30.1063
lfingers 7.12502
lthumb 5.76043 -0.204629
rfemur 10.1901 -4.10972 12.4201
rtibia 1.24186
rfoot -16.3966 -9.95318
rtoes 11.8461
lfemur 12.0712 -1.64955 -14.3441
ltibia -2.14807
lfoot -14.4219 19.257
ltoes -5.94172
201
root -28.8903 17.2159 -0.465908 22.9414 85.6913 21.0917
lowerback 5.10649 1.88012 -3.91696
upperback 0.956445 2.29962 -0.655516
thorax -2.00297 1.17844 1.36266
lowerneck -23.4371 2.68084 3.30038
upperneck 25.6103 3.00656 -0.749572
head 12.4522 1.63558 -0.29842
rclavicle -2.55935e-015 1.59028e-015
rhumerus -34.6656 5.24222 -88.8469
rradius 32.8518
rwrist 0.546851
rhand -11.7657 -30.9197
rfingers 7.12502
rthumb 14.2828 -60.4085
lclavicle -2.55935e-015 1.59028e-015
lhumerus -29.1616 -11.6811 91.6579
lradius 25.0744
lwrist -17.7358
lhand -12.7296 -27.8075
lfingers 7.12502
lthumb 13.3538 1.74459
rfemur 10.141 -4.05061 12.6778
rtibia 0.887234
rfoot -15.9351 -10.1849
rtoes 10.2562
lfemur 12.1737 -1.94478 -14.2208
ltibia -2.32764
lfoot -14.5215 19.621
ltoes -5.81148
202
root -28.8889 17.216 -0.464849 21.2644 85.7876 19.412
lowerback 5.09747 1.8639 -3.77738
upperback 0.952213 2.28619 -0.600711
thorax -1.99845 1.17065 1.34229
lowerneck -23.3695 2.69797 3.29694
upperneck 25.574 3.03732 -0.757927
head 12.4252 1.64801 -0.296647
rclavicle 2.23136e-014 1.39149e-015
rhumerus -34.7313 5.27662 -88.8173
rradius 32.938
rwrist 0.463274
rhand -11.7755 -30.9252
rfingers 7.12502
rthumb 14.2734 -60.4146
lclavicle 2.23136e-014 1.39149e-015
lhumerus -29.1531 -11.5755 91.6486
lradius 25.0236
lwrist -17.8258
lhand -14.0637 -27.6832
lfingers 7.12502
lthumb 12.0677 1.94885
rfemur 10.1716 -4.19529 12.828
rtibia 1.2384
rfoot -16.4123 -9.89225
rtoes 11.5223
lfemur 12.161 -1.88466 -13.9907
ltibia -2.30622
lfoot -14.4197 19.5647
ltoes -6.55829
203
root -28.891 17.2178 -0.466579 21.0813 85.5133 19.2
lowerback 5.08287 1.94594 -3.8552
upperback 0.921185 2.39041 -0.623823
thorax -2.02986 1.22381 1.35422
lowerneck -23.2447 2.70913 3.30389
upperneck 25.4829 3.06199 -0.785071
head 12.3656 1.65608 -0.305889
rclavicle 7.8023e-015 -1.76918e-014
rhumerus -34.7632 5.2496 -88.8061
rradius 32.9569
rwrist 0.523926
rhand -11.7513 -30.896
rfingers 7.12502
rthumb 14.2966 -60.3839
lclavicle 7.8023e-015 -1.76918e-014
lhumerus -29.2096 -11.5102 91.6457
lradius 25.0616
lwrist -17.8399
lhand -13.2518 -27.7682
lfingers 7.12502
lthumb 12.8505 1.81626
rfemur 9.96812 -4.26177 12.6663
rtibia 1.17153
rfoot -15.9929 -9.78084
rtoes 10.4374
lfemur 12.2003 -1.86198 -14.1476
ltibia -2.36471
lfoot -14.5325 19.7718
ltoes -6.50678
204
root -28.8877 17.2174 -0.464714 23.8297 85.6839 21.9688
lowerback 5.05012 1.8599 -3.97632
upperback 0.938062 2.27133 -0.675675
thorax -1.99035 1.16466 1.37861
lowerneck -23.1831 2.72653 3.36164
upperneck 25.4295 3.07127 -0.802135
head 12.3341 1.66351 -0.321437
rclavicle -1.61016e-014 3.97569e-016
rhumerus -34.7475 5.21427 -88.8608
rradius 32.9591
rwrist 0.571088
rhand -11.7218 -30.8162
rfingers 7.12502
rthumb 14.3251 -60.302
lclavicle -1.61016e-014 3.97569e-016
lhumerus -29.2509 -11.4879 91.5968
lradius 25.1001
lwrist -17.7951
lhand -12.1352 -27.803
lfingers 7.12502
lthumb 13.9267 1.71065
rfemur 10.133 -4.24324 12.5403
rtibia 0.963736
rfoot -15.9725 -9.99869
rtoes 10.6795
lfemur 12.0823 -1.63308 -14.1585
ltibia -2.17931
lfoot -14.4427 19.305
ltoes -6.35243
205
root -28.8914 17.2175 -0.466465 23.4782 85.508 21.7031
lowerback 5.15327 1.92689 -3.95316
upperback 0.988626 2.35791 -0.764828
thorax -1.99584 1.20764 1.26532
lowerneck -23.2641 2.7467 3.48685
upperneck 25.4263 3.04271 -0.786301
head 12.3505 1.66432 -0.340345
rclavicle -3.90115e-015 -4.37326e-015
rhumerus -34.7006 5.12621 -88.946
rradius 33.0232
rwrist 0.534135
rhand -11.6998 -30.8333
rfingers 7.12502
rthumb 14.3463 -60.3176
lclavicle -3.90115e-015 -4.37326e-015
lhumerus -29.2012 -11.5828 91.4902
lradius 25.1188
lwrist -17.7693
lhand -12.799 -27.8472
lfingers 7.12502
lthumb 13.287 1.70922
rfemur 10.1483 -4.16015 12.4593
rtibia 1.05896
rfoot -16.0659 -9.80931
rtoes 11.5696
lfemur 12.154 -1.38912 -14.1774
ltibia -2.10856
lfoot -14.5134 19.1758
ltoes -5.78826
